Coordinates
version=1
nRows=24
nColumns=24
inDegrees=yes

Units are S.I. units (second, meters, Newtons, ...)
Angles are in degrees.

endheader
time	pelvis_tilt	pelvis_list	pelvis_rotation	pelvis_tx	pelvis_ty	pelvis_tz	hip_flexion_r	hip_adduction_r	hip_rotation_r	knee_angle_r	ankle_angle_r	subtalar_angle_r	mtp_angle_r	hip_flexion_l	hip_adduction_l	hip_rotation_l	knee_angle_l	ankle_angle_l	subtalar_angle_l	mtp_angle_l	lumbar_extension	lumbar_bending	lumbar_rotation
      4.58000000	     -1.27799317	      3.81899713	     -0.16884917	     -2.62414185	      0.67907391	      0.19377901	     22.87232119	      1.15719234	      5.16241347	      3.92955663	      8.90985119	     -9.50601652	      0.00000000	    -18.54837480	     10.03361334	     16.15870431	    -13.25025601	     13.65772747	     -7.17553492	      0.00000000	    -17.22747067	     -2.15243612	     -5.15100211
      4.59000000	     -0.92632072	      3.09044399	     -0.19096003	     -2.61000500	      0.67894573	      0.19428574	     23.04610292	      2.18773120	      6.27117079	      1.28297874	      8.12009534	    -10.92117112	      0.00000000	    -17.89992820	      9.14816804	     12.29784097	    -16.89965366	     14.09135979	     -2.00748520	      0.00000000	    -17.62333302	     -1.08211885	     -4.97849590
      4.60000000	     -1.26869788	      2.36354091	     -0.08639659	     -2.59593937	      0.67817556	      0.19486460	     24.16215963	      3.28543730	      7.14280380	     -1.93744938	      6.96221921	    -12.35099366	      0.00000000	    -16.15423578	      8.08325219	      8.95950337	    -21.05270783	     13.66649662	      2.30727386	      0.00000000	    -17.12788349	     -0.05165497	     -4.82581700
      4.61000000	     -1.01142987	      1.40389596	     -0.10577969	     -2.58189736	      0.67818346	      0.19561571	     24.68952160	      4.69321505	      7.45374769	     -5.40258870	      6.14975773	    -12.74908492	      0.00000000	    -14.90574782	      6.64551986	      5.91151635	    -25.30973888	     12.32012131	      5.74478988	      0.00000000	    -17.42525492	      1.22395689	     -4.51931194
      4.62000000	     -0.93103905	      0.39502642	     -0.10049291	     -2.56793777	      0.67807191	      0.19639842	     25.40518820	      6.15047381	      7.47312817	     -8.90236495	      5.26295980	    -13.00704238	      0.00000000	    -13.23403279	      5.04204116	      3.38125624	    -29.80334656	     10.24243186	      8.32012082	      0.00000000	    -17.48857656	      2.53319886	     -4.18882501
      4.63000000	     -1.36279077	     -0.43056832	     -0.08592439	     -2.55431990	      0.67744006	      0.19717603	     26.67155745	      7.39179505	      7.32636406	    -12.35915155	      4.51300402	    -13.05875349	      0.00000000	    -10.71648970	      3.58841289	      1.44447356	    -34.53785256	      7.44656145	      9.82242383	      0.00000000	    -16.92753105	      3.59461682	     -3.97150780
      4.64000000	     -1.27251882	     -1.42665722	      0.00323781	     -2.54091504	      0.67753067	      0.19786814	     27.14268519	      8.70313404	      6.90763757	    -15.35956472	      4.11144619	    -12.90143030	      0.00000000	     -8.61976027	      1.89028161	     -0.02026437	    -39.23775921	      4.36257403	     10.65840681	      0.00000000	    -17.07315477	      4.84748489	     -3.75471321
      4.65000000	     -1.48749083	     -2.33804469	      0.22930057	     -2.52782323	      0.67742580	      0.19837290	     27.73119963	      9.80249665	      6.33636925	    -17.90412082	      4.03487146	    -12.76493277	      0.00000000	     -5.94282190	      0.29652869	     -0.92346708	    -43.98361790	      0.99036324	     10.42320501	      0.00000000	    -16.80388197	      5.99766906	     -3.66886221
      4.66000000	     -1.58043246	     -3.22237703	      0.49503964	     -2.51512255	      0.67761548	      0.19886867	     27.91937470	     10.81344492	      5.77931394	    -19.90052419	      4.35254438	    -12.68410544	      0.00000000	     -3.24339817	     -1.21116925	     -1.41683983	    -48.58676887	     -2.25923625	      9.36279574	      0.00000000	    -16.72685621	      7.05886125	     -3.54884854
      4.67000000	     -1.68702807	     -4.12177182	      0.75696041	     -2.50271546	      0.67800761	      0.19938530	     27.83146971	     11.79936003	      5.23294148	    -21.32735612	      4.92175008	    -12.63334673	      0.00000000	     -0.41403772	     -2.64795232	     -1.56355710	    -52.99845632	     -5.06345857	      7.79359291	      0.00000000	    -16.62554200	      8.09783820	     -3.39681964
      4.68000000	     -2.00084054	     -5.00774889	      0.96265900	     -2.49050927	      0.67837419	      0.19999332	     27.69707180	     12.74662506	      4.63991634	    -22.24343633	      5.79113978	    -12.44678567	      0.00000000	      2.72367240	     -3.96890682	     -1.44104288	    -57.19695308	     -7.16265055	      6.00303948	      0.00000000	    -16.21092860	      9.06774811	     -3.16043983
      4.69000000	     -2.05120228	     -5.83405308	      1.20839413	     -2.47844609	      0.67941552	      0.20048369	     26.88263585	     13.63555585	      4.41138481	    -22.47557721	      6.79177584	    -12.46983614	      0.00000000	      5.55444285	     -5.04642329	     -0.98618433	    -60.96741678	     -8.54063985	      3.77935963	      0.00000000	    -16.10035280	      9.95090672	     -2.85368061
      4.70000000	     -2.04430543	     -6.57002808	      1.32494678	     -2.46659780	      0.68083827	      0.20116721	     25.77917419	     14.48430669	      4.23603553	    -22.30276884	      7.73223110	    -12.51077203	      0.00000000	      8.28343147	     -5.94643835	     -0.51398663	    -64.34458806	     -9.08157957	      1.59789474	      0.00000000	    -16.09217861	     10.64400234	     -2.38768199
      4.71000000	     -2.25111391	     -7.13818234	      1.45305922	     -2.45465171	      0.68236623	      0.20174033	     24.59638055	     15.14449556	      4.37741800	    -21.66085024	      8.77916136	    -12.46917653	      0.00000000	     11.17143075	     -6.49382027	      0.19525251	    -67.27092673	     -8.89814696	     -0.40816177	      0.00000000	    -15.67506399	     11.15474881	     -2.05680910
      4.72000000	     -2.14746763	     -7.54131781	      1.33602569	     -2.44268387	      0.68460221	      0.20258220	     22.84508075	     15.74663657	      4.85531540	    -20.72049594	      9.72801096	    -12.35880907	      0.00000000	     13.48991599	     -6.85904887	      0.66328980	    -69.60184564	     -8.02594955	     -2.06474951	      0.00000000	    -15.68551131	     11.40068436	     -1.38219378
      4.73000000	     -2.17752151	     -7.73391558	      1.35199252	     -2.43092012	      0.68697121	      0.20314296	     21.10822551	     16.05399767	      5.43865818	    -19.53968422	     10.33421988	    -12.46821202	      0.00000000	     15.91140540	     -6.84090248	      1.31308560	    -71.45737343	     -6.89519363	     -3.76093792	      0.00000000	    -15.53610333	     11.43820110	     -0.90405983
      4.74000000	     -2.21169295	     -7.71921663	      1.22582602	     -2.41904288	      0.68950761	      0.20389347	     19.21707005	     16.18840609	      6.39800454	    -18.18550536	     10.81628646	    -12.66889913	      0.00000000	     18.12620811	     -6.61725680	      1.77910564	    -72.75933842	     -5.45418369	     -4.99992754	      0.00000000	    -15.34431889	     11.19829660	     -0.38328529
      4.75000000	     -2.17782634	     -7.47997427	      1.00709145	     -2.40717676	      0.69223157	      0.20473028	     17.16663453	     16.08606898	      7.57608414	    -16.73626404	     11.16130651	    -12.93979084	      0.00000000	     20.07026561	     -6.17176174	      2.07642060	    -73.51847894	     -3.91744639	     -5.87936773	      0.00000000	    -15.26805932	     10.66882643	      0.21544709
      4.76000000	     -2.12645701	     -7.11427423	      0.74300516	     -2.39539706	      0.69493608	      0.20553082	     15.08967290	     15.80489983	      8.81491160	    -15.27308996	     11.39007308	    -13.19422086	      0.00000000	     21.85054056	     -5.61309175	      2.23474065	    -73.80969131	     -2.43618843	     -6.61683829	      0.00000000	    -15.25719549	     10.01131171	      0.81623713
      4.77000000	     -2.09489760	     -6.64663111	      0.41062290	     -2.38372330	      0.69748548	      0.20633706	     13.05369563	     15.37398038	     10.13757043	    -13.82953654	     11.51034112	    -13.46652300	      0.00000000	     23.50819996	     -4.98390432	      2.25098656	    -73.66390062	     -1.07203411	     -7.21834406	      0.00000000	    -15.27537497	      9.25088726	      1.42713822
      4.78000000	     -2.11181417	     -6.10016302	      0.03514500	     -2.37213297	      0.69974858	      0.20715710	     11.12597187	     14.81137797	     11.36768278	    -12.43682634	     11.65323572	    -13.67481452	      0.00000000	     25.09022153	     -4.31904781	      2.14895938	    -73.12038159	      0.10763088	     -7.70957943	      0.00000000	    -15.26512401	      8.40028299	      2.02593348
      4.79000000	     -2.12322029	     -5.54336801	     -0.40537500	     -2.36067847	      0.70173566	      0.20797100	      9.25363450	     14.19812032	     12.65452165	    -11.10497029	     11.71867283	    -13.93426261	      0.00000000	     26.52968856	     -3.69320038	      1.93856758	    -72.19177187	      1.15011899	     -8.18698479	      0.00000000	    -15.33466873	      7.55909843	      2.62707150
      4.80000000	     -2.20273062	     -4.98765340	     -0.89406115	     -2.34930597	      0.70330222	      0.20882901	      7.55369780	     13.55476512	     13.70326946	     -9.87732622	     11.90961403	    -14.02423613	      0.00000000	     27.92843433	     -3.13611303	      1.64169653	    -70.92310647	      1.98988505	     -8.58138292	      0.00000000	    -15.33709316	      6.71354669	      3.26816865
      4.81000000	     -2.27849307	     -4.48581890	     -1.42417943	     -2.33805850	      0.70450623	      0.20966631	      5.94383192	     12.94288576	     14.71084584	     -8.76321574	     12.13780575	    -14.08069065	      0.00000000	     29.19324502	     -2.67934003	      1.29913049	    -69.31016739	      2.73415759	     -8.97674441	      0.00000000	    -15.40237747	      5.95253789	      3.89276340
